<svg xmlns="http://www.w3.org/2000/svg" viewBox="0 0 320 64" fill="none" direction="rtl">
  <g stroke="currentColor" stroke-width="3.5" stroke-linecap="round" stroke-linejoin="round" transform="translate(0,0)">
    <path d="M32 12 C 32 28, 32 44, 32 56"></path>
    <path d="M32 22 C 24 21, 16 17, 12 11 C 18 12, 26 16, 32 22 Z" fill="currentColor" stroke="none"></path>
    <path d="M32 30 C 40 30, 48 27, 52 21 C 46 22, 38 25, 32 30 Z" fill="currentColor" stroke="none"></path>
    <path d="M32 40 C 26 41, 20 39, 16 34 C 21 35, 27 36, 32 40 Z" fill="currentColor" stroke="none"></path>
    <ellipse cx="36" cy="48" rx="3.2" ry="4.2" fill="currentColor" stroke="none" transform="rotate(20 36 48)"></ellipse>
  </g>
  
  <text x="76" y="44" font-family="&#39;IBM Plex Sans Arabic&#39;, &#39;Plex Arabic&#39;, Tahoma, sans-serif" font-size="28" font-weight="600" fill="currentColor">تري ليفاين</text>
</svg>