<svg xmlns="http://www.w3.org/2000/svg" viewBox="0 0 64 64" fill="none">
  <rect width="64" height="64" rx="14" fill="#4f6831"/>
  <g fill="white">
    <path d="M32 12 C 32 28, 32 44, 32 56" stroke="white" stroke-width="3.5" stroke-linecap="round"/>
    <path d="M32 22 C 24 21, 16 17, 12 11 C 18 12, 26 16, 32 22 Z"/>
    <path d="M32 30 C 40 30, 48 27, 52 21 C 46 22, 38 25, 32 30 Z"/>
    <path d="M32 40 C 26 41, 20 39, 16 34 C 21 35, 27 36, 32 40 Z"/>
    <ellipse cx="36" cy="48" rx="3.2" ry="4.2" transform="rotate(20 36 48)"/>
  </g>
</svg>
